<?xml version="1.0" encoding="UTF-8"?>
<svg id="Layer_1" data-name="Layer 1" xmlns="http://www.w3.org/2000/svg" viewBox="0 0 512 512">
  <defs>
    <style>
      .cls-1 {
        fill: #ca0000;
      }
    </style>
  </defs>
  <path class="cls-1" d="M152.2,386.6c3.44.59,6.4,1.1,9.36,1.61,16.03,2.8,32.06,5.6,48.1,8.4,5.09.89,10.18,1.71,15.25,2.69.99.19,1.97.83,2.77,1.49,17.13,13.97,34.23,27.97,51.33,41.97.67.54,1.31,1.12,2.03,1.59,2.58,1.7,6.04,1.21,8-1.09,2.04-2.38,1.94-5.94-.27-8.23-.55-.57-1.18-1.05-1.79-1.55-17.94-14.68-35.88-29.35-53.8-44.05-1.21-1-2.5-1.59-4.03-1.85-22.53-3.91-45.08-7.77-67.59-11.77-15.31-2.73-30.6-5.61-45.88-8.54-5.87-1.13-11.19-3.6-15.72-7.58-8.27-7.28-10.34-17.93-5.62-28.44.57-1.27.94-2.63,1.45-4.05.06.03.38.16.65.36,5,3.77,10.71,5.72,16.83,6.63,8.32,1.24,16.58.52,24.86-.61,7.4-1.01,14.25-3.81,21.24-6.14,2.38-.79,4.63-1.05,7.14-.68,15.4,2.24,30.81,4.35,46.23,6.48,17.05,2.36,34.1,4.69,51.14,7.06,17.04,2.37,34.09,4.77,51.13,7.16,5.11.72,10.23,1.44,15.34,2.13,3.01.41,5.59-.96,6.73-3.51,1.13-2.54.53-5.53-1.69-7.17-.93-.69-2.15-1.2-3.3-1.37-8.01-1.2-16.04-2.3-24.07-3.41-9.8-1.36-19.6-2.72-29.4-4.08-9.87-1.37-19.74-2.75-29.62-4.12-9.73-1.35-19.46-2.7-29.19-4.05-8.88-1.23-17.75-2.47-26.63-3.71-1.11-.16-2.22-.34-3.82-.59,1.01-.42,1.56-.69,2.14-.88,3.53-1.2,7.08-2.33,10.59-3.59,1.33-.48,2.65-1.11,3.81-1.91,10.95-7.5,21.87-15.04,32.78-22.61,1.22-.85,2.46-1.27,3.95-1.41,12.57-1.18,25.13-2.44,37.69-3.68,2.93-.29,5.86-.5,8.78-.87,3.84-.49,6.12-3.4,5.6-7-.48-3.37-3.55-5.47-7.29-5.09-7.99.82-15.99,1.59-23.98,2.38-.42.04-.85.04-1.64.08.54-.52.82-.87,1.17-1.12,1.52-1.08,3.09-2.09,4.6-3.19,2.88-2.12,3.57-5.76,1.65-8.55-1.92-2.8-5.58-3.52-8.56-1.5-7.3,4.96-14.54,10-21.81,15.01-12.88,8.88-25.74,17.77-38.64,26.62-1.05.72-2.22,1.32-3.43,1.73-17.72,6-35.44,12.02-53.22,17.87-3.17,1.04-6.57,1.48-9.89,1.96-6.2.9-12.43,1.17-18.66.25-3.72-.55-7.29-1.56-10.44-3.73-2.99-2.06-4.75-4.88-5.41-8.46-.73-3.92.42-7.23,3.09-10.07,2.56-2.72,5.72-4.51,9.25-5.7,12.37-4.16,24.73-8.34,37.1-12.48,1.79-.6,3.41-1.41,4.95-2.52,12.12-8.7,24.29-17.34,36.41-26.06,1.44-1.03,2.79-2.26,3.96-3.6,13.57-15.58,27.11-31.2,40.64-46.83.91-1.05,1.91-1.89,3.18-2.49,21.11-10.09,41.4-8.38,60.88,4.28,2.4,1.56,4.54,3.5,6.87,5.18.72.52,1.62,1,2.47,1.09,1.81.2,3.19-1.15,3.2-2.97,0-.77-.2-1.56-.4-2.31-11.15-41.17-22.31-82.34-33.48-123.5-4.03-14.88-8.1-29.74-12.11-44.63-4.31-15.98,5.01-32.14,20.82-36.16,14.55-3.69,29.85,4.72,34.93,19.17,3.35,9.53,6.7,19.07,10.16,28.57,21.41,58.82,42.85,117.63,64.23,176.46.75,2.06,1.11,4.3,1.33,6.49,1.34,13.63,2.75,27.26,3.8,40.92.88,11.37,1.47,22.77,1.88,34.17.44,12.4.72,24.82.73,37.23.01,16.29-.64,32.57-2.12,48.8-1.52,16.66-3.82,33.2-8.1,49.4-2.3,8.68-5.18,17.15-9.11,25.25-8.84,18.21-22.71,30.91-41.57,38.23-9.55,3.7-19.43,6.02-29.55,7.45-13.9,1.96-27.88,2.29-41.88,1.64-13.7-.63-27.08-2.9-39.75-8.48-8.33-3.67-15.8-8.7-23.17-13.97-13.78-9.85-23.87-22.86-32.38-37.24-10.29-17.39-17.06-36.13-21.01-55.92-.81-4.06-1.43-8.16-2.2-12.66Z"/>
  <path class="cls-1" d="M180.56,182.97c-1.76.58-3.35,1.21-5,1.61-2.67.65-4.94,1.98-6.84,3.88-4.41,4.41-8.93,8.73-13.05,13.41-7.54,8.56-14.81,17.35-22.2,26.04-.5.59-.99,1.18-1.7,2.03-.27-.95-.45-1.54-.59-2.13-9.31-39.71-18.57-79.42-27.93-119.11-3.02-12.78,2.25-24.98,11.69-31.48,16.14-11.11,38.78-3,44.52,16.08,1.71,5.69,2.86,11.54,4.22,17.33,5.57,23.72,11.11,47.45,16.66,71.18.06.28.11.56.23,1.16Z"/>
  <path class="cls-1" d="M93.42,324.95c-2.5.23-4.64.51-6.78.6-4.23.19-8.29-.61-12.11-2.45-6.01-2.89-10.09-7.48-11.99-13.9-1.18-4.01-1.91-8.08-1.28-12.31.56-3.78,2.24-6.92,5.06-9.47,2.7-2.45,5.9-4.07,9.3-5.28,5-1.77,10.05-3.39,15.04-5.19,6.34-2.28,12.63-4.7,18.96-7.01,1.52-.55,2.77-1.38,3.92-2.53,6.61-6.58,13.28-13.1,19.88-19.69.89-.89,1.44-2.12,2.25-3.11,12.05-14.81,24.16-29.56,37.23-43.49,2.54-2.71,5.39-4.6,9.03-5.82,7.08-2.37,13.98-1.86,20.94.03,5.1,1.39,9.74,3.81,14.07,6.82.35.24.64.55,1.03.88-.55.65-1.05,1.26-1.56,1.85-10.44,12.03-20.87,24.07-31.33,36.08-.84.96-1.82,1.84-2.85,2.58-11.6,8.32-23.22,16.62-34.87,24.88-1.15.81-2.46,1.48-3.79,1.93-12.08,4.11-24.18,8.16-36.27,12.24-5.11,1.72-9.61,4.45-13.44,8.27-10.12,10.09-8.35,23.81-1.92,32.18.43.56.86,1.1,1.49,1.9Z"/>
</svg>